HIERARCHY
ROOT SpineBase
{
  OFFSET 0.000000 0.000000 0.000000
  CHANNELS 6 Xposition Yposition Zposition Zrotation Xrotation Yrotation
  JOINT SpineMid
  {
    OFFSET 0.000000 24.862946 0.000000
    CHANNELS 3 Zrotation Xrotation Yrotation
    JOINT SpineShoulder
    {
      OFFSET -0.114524 18.592200 -0.671524
      CHANNELS 3 Zrotation Xrotation Yrotation
      JOINT Neck
      {
        OFFSET -0.060392 6.220547 -0.531683
        CHANNELS 3 Zrotation Xrotation Yrotation
        JOINT Head
        {
          OFFSET 3.457526 11.663617 2.873542
          CHANNELS 3 Zrotation Xrotation Yrotation
          End Site
          {
            OFFSET 0 0 0
          }
        }
      }
      JOINT ShoulderLeft
      {
        OFFSET -10.146426 -1.574674 -10.486662
        CHANNELS 3 Zrotation Xrotation Yrotation
        JOINT ElbowLeft
        {
          OFFSET -5.130835 -18.296972 -5.447968
          CHANNELS 3 Zrotation Xrotation Yrotation
          JOINT WristLeft
          {
            OFFSET -1.928767 -13.439353 -12.716824
            CHANNELS 3 Zrotation Xrotation Yrotation
            JOINT HandLeft
            {
              OFFSET -0.011949 -2.555014 -1.465962
              CHANNELS 3 Zrotation Xrotation Yrotation
              JOINT HandTipLeft
              {
                OFFSET 3.300360 -4.501384 -2.441190
                CHANNELS 3 Zrotation Xrotation Yrotation
                End Site
                {
                  OFFSET 0 0 0
                }
              }
              JOINT ThumbLeft
              {
                OFFSET 1.099926 3.345885 -3.785633
                CHANNELS 3 Zrotation Xrotation Yrotation
                End Site
                {
                  OFFSET 0 0 0
                }
              }
            }
          }
        }
      }
      JOINT ShoulderRight
      {
        OFFSET 13.659590 -5.016938 5.806702
        CHANNELS 3 Zrotation Xrotation Yrotation
        JOINT ElbowRight
        {
          OFFSET 3.119784 -22.777154 2.392190
          CHANNELS 3 Zrotation Xrotation Yrotation
          JOINT WristRight
          {
            OFFSET 7.456948 -14.550718 -9.039443
            CHANNELS 3 Zrotation Xrotation Yrotation
            JOINT HandRight
            {
              OFFSET 2.964003 -3.454163 -2.512870
              CHANNELS 3 Zrotation Xrotation Yrotation
              JOINT HandTipRight
              {
                OFFSET -0.620796 -1.438006 -3.459457
                CHANNELS 3 Zrotation Xrotation Yrotation
                End Site
                {
                  OFFSET 0 0 0
                }
              }
              JOINT ThumbRight
              {
                OFFSET -2.897739 1.290442 -0.601520
                CHANNELS 3 Zrotation Xrotation Yrotation
                End Site
                {
                  OFFSET 0 0 0
                }
              }
            }
          }
        }
      }
    }
  }
  JOINT HipLeft
  {
    OFFSET -5.015623 1.745502 -6.342699
    CHANNELS 3 Zrotation Xrotation Yrotation
    JOINT KneeLeft
    {
      OFFSET 15.386159 3.882205 -27.333362
      CHANNELS 3 Zrotation Xrotation Yrotation
      JOINT AnkleLeft
      {
        OFFSET 2.542788 -35.439400 -10.133454
        CHANNELS 3 Zrotation Xrotation Yrotation
        JOINT FootLeft
        {
          OFFSET -3.402165 -8.301192 1.643071
          CHANNELS 3 Zrotation Xrotation Yrotation
          End Site
          {
            OFFSET 0 0 0
          }
        }
      }
    }
  }
  JOINT HipRight
  {
    OFFSET 4.798277 0.723178 -0.044843
    CHANNELS 3 Zrotation Xrotation Yrotation
    JOINT KneeRight
    {
      OFFSET 27.698888 -7.647269 -16.677004
      CHANNELS 3 Zrotation Xrotation Yrotation
      JOINT AnkleRight
      {
        OFFSET -3.618613 -27.861246 -1.526713
        CHANNELS 3 Zrotation Xrotation Yrotation
        JOINT FootRight
        {
          OFFSET -0.723520 -6.815770 -6.309602
          CHANNELS 3 Zrotation Xrotation Yrotation
          End Site
          {
            OFFSET 0 0 0
          }
        }
      }
    }
  }
}
MOTION
Frames: 15
Frame Time: 0.033333
9.885307 42.189542 364.164873 1.149561 -2.808678 -32.644731 -2.393253 -0.401615 32.659142 -0.352041 0.111116 -0.081818 -0.805948 -9.346974 3.890937 0.000000 0.000000 0.000000 3.458884 1.964266 -0.614914 3.010908 -0.692001 -4.032012 11.895830 -17.425182 -2.149906 -25.485289 14.173485 17.827272 0.000000 0.000000 0.000000 0.000000 0.000000 0.000000 11.070683 -12.102045 0.102706 22.783716 39.840414 -15.123389 -6.368109 42.421143 26.035695 -44.845193 -42.113121 -71.488837 0.000000 0.000000 0.000000 0.000000 0.000000 0.000000 -2.670477 5.730059 33.246321 -0.947464 -5.612316 -0.971568 4.322676 9.100567 -1.858481 0.000000 0.000000 0.000000 -1.857125 2.760045 32.231165 -1.917526 -4.481075 0.974642 5.426904 15.530870 -6.124248 0.000000 0.000000 0.000000
9.836954 42.217574 364.086900 0.959913 -2.554717 -32.556417 -2.006481 -0.462014 32.560317 -0.132240 0.051856 -0.063039 -1.703019 -9.003600 3.891023 0.000000 0.000000 0.000000 3.395261 2.347288 -0.820968 2.317389 -1.186948 -3.395701 13.078359 -20.785808 -2.433664 -26.711701 17.925881 19.657950 0.000000 0.000000 0.000000 0.000000 0.000000 0.000000 11.173704 -14.599382 0.027285 22.304068 44.212005 -15.041569 -2.067902 37.130737 21.803273 -35.038736 -42.397651 -71.286680 0.000000 0.000000 0.000000 0.000000 0.000000 0.000000 -2.467408 5.613439 31.987075 -1.097674 -5.150950 0.307027 3.623295 8.206035 -1.905114 0.000000 0.000000 0.000000 -1.262001 3.127239 31.919762 -4.162044 -2.567240 0.935681 9.536062 7.496968 -7.641176 0.000000 0.000000 0.000000
9.770125 42.251009 363.912278 0.888398 -2.200926 -32.848892 -1.374667 -0.575437 32.852354 0.126062 -0.055368 -0.027516 -3.573402 -8.174406 3.892614 0.000000 0.000000 0.000000 2.557281 3.442096 -1.083710 1.973832 -1.990994 -2.646451 16.921746 -24.683803 -3.703147 -32.566842 19.022346 24.233300 0.000000 0.000000 0.000000 0.000000 0.000000 0.000000 11.764533 -16.492268 0.139210 20.761610 48.236879 -14.528461 -1.074900 30.255232 19.302171 -19.590353 -43.165008 -73.555575 0.000000 0.000000 0.000000 0.000000 0.000000 0.000000 -2.352413 5.207091 30.978037 -0.922319 -4.487968 1.670086 1.684599 5.979140 -1.468546 0.000000 0.000000 0.000000 -1.105303 2.643547 32.104556 -4.637958 -1.584756 0.980147 10.842804 5.958713 -8.031324 0.000000 0.000000 0.000000
9.710599 42.287719 363.696380 0.676067 -1.689487 -33.305766 -1.248146 -0.603034 33.293854 -0.101569 0.175909 -0.044168 -3.042450 -9.365934 3.982274 0.000000 0.000000 0.000000 3.172907 3.077861 -1.216970 2.872141 -5.047242 -3.050630 10.779495 -7.939537 -3.911672 -25.053512 6.550641 15.601582 0.000000 0.000000 0.000000 0.000000 0.000000 0.000000 13.631881 -17.964571 0.629343 17.160649 49.184910 -12.645550 2.150900 37.008265 20.569603 -24.133168 -49.711183 -83.067027 0.000000 0.000000 0.000000 0.000000 0.000000 0.000000 -2.034503 4.281102 30.040110 -1.154299 -3.076168 3.283339 0.527935 3.824470 -1.493743 0.000000 0.000000 0.000000 -0.683392 2.166121 32.329610 -4.650853 -1.272865 1.193551 10.879784 6.074272 -7.942951 0.000000 0.000000 0.000000
9.723493 42.308522 363.689863 0.612188 -1.676889 -33.438379 -0.928955 -0.582338 33.430874 0.045576 0.030750 -0.026052 -3.571406 -8.707854 3.903537 0.000000 0.000000 0.000000 2.588943 4.019308 -1.370498 2.930540 -6.428789 -2.570714 8.595753 -8.287073 -2.901115 -21.538424 10.472381 14.855042 0.000000 0.000000 0.000000 0.000000 0.000000 0.000000 14.788263 -17.215332 0.915790 14.970962 49.643221 -11.656929 3.196423 33.714563 19.035941 -21.200500 -52.925011 -85.975315 0.000000 0.000000 0.000000 0.000000 0.000000 0.000000 -2.048020 3.173522 29.102924 -1.220527 -2.979296 4.508911 0.455718 6.080389 -2.417741 0.000000 0.000000 0.000000 -0.774912 1.921733 32.525864 -3.636044 -1.814703 1.190608 7.930986 9.897740 -6.239502 0.000000 0.000000 0.000000
9.866571 42.308591 363.717335 0.717368 -1.753207 -33.595734 -0.519213 -0.675428 33.601998 0.114733 -0.114336 -0.004896 -4.142530 -7.405190 3.719017 0.000000 0.000000 0.000000 1.830280 5.015137 -1.450122 3.514447 -8.318148 -2.455038 8.381323 -3.379260 -3.660594 -20.439423 8.151095 14.116420 0.000000 0.000000 0.000000 0.000000 0.000000 0.000000 14.996399 -13.907045 0.932745 16.123246 47.575804 -12.732706 2.942500 31.739181 18.007872 -14.237059 -44.400303 -78.603751 0.000000 0.000000 0.000000 0.000000 0.000000 0.000000 -2.127588 2.112834 29.436947 -1.256694 -2.345215 4.460609 0.319984 6.815069 -2.820740 0.000000 0.000000 0.000000 -1.254330 1.299512 32.854232 -2.978732 -1.506999 1.055539 8.593312 11.175688 -7.031514 0.000000 0.000000 0.000000
10.129419 42.308166 363.848986 1.023680 -2.084399 -33.879642 -0.183346 -0.801602 33.911910 0.220109 -0.324445 0.023867 -4.731232 -5.522889 3.457810 0.000000 0.000000 0.000000 0.827428 6.120416 -1.439010 4.874857 -10.347076 -2.976195 8.303760 0.738296 -4.173931 -19.840844 7.367031 14.235764 0.000000 0.000000 0.000000 0.000000 0.000000 0.000000 16.059421 -12.318725 1.008770 15.948968 47.266722 -13.786185 1.201463 29.568688 17.916341 -13.385302 -40.952206 -75.340940 0.000000 0.000000 0.000000 0.000000 0.000000 0.000000 -2.457737 1.855472 30.619518 -1.481794 -2.085553 3.641912 0.693509 6.830856 -2.846194 0.000000 0.000000 0.000000 -2.012157 1.159290 33.918625 -2.674933 -1.396682 0.294707 9.930306 9.845376 -8.134853 0.000000 0.000000 0.000000
10.430484 42.296148 364.027867 1.413065 -2.545606 -34.217912 0.193083 -0.913814 34.286542 0.310812 -0.521906 0.058369 -5.090634 -3.547887 3.141193 0.000000 0.000000 0.000000 -0.152241 6.962994 -1.349353 5.630971 -10.522967 -3.498518 8.295829 -0.422586 -3.855754 -18.705683 15.264741 17.380110 0.000000 0.000000 0.000000 0.000000 0.000000 0.000000 18.181799 -12.261455 1.225093 13.214629 47.687875 -14.081488 2.409877 26.486702 15.970524 -17.206490 -40.051834 -71.735299 0.000000 0.000000 0.000000 0.000000 0.000000 0.000000 -2.891005 1.985090 32.320439 -1.722305 -2.225145 2.296506 1.533665 7.152511 -2.784189 0.000000 0.000000 0.000000 -2.600518 1.309211 34.279027 -2.760300 -1.360837 0.294521 10.926976 7.720681 -8.814363 0.000000 0.000000 0.000000
10.722985 42.289345 364.193134 1.790243 -3.004239 -34.602416 0.609912 -1.044889 34.711459 0.383883 -0.644815 0.092536 -5.025860 -1.558595 2.691618 0.000000 0.000000 0.000000 -0.656537 7.578113 -1.372812 5.726329 -10.404358 -3.808495 7.826507 0.350431 -3.563501 -16.003657 19.132359 17.622251 0.000000 0.000000 0.000000 0.000000 0.000000 0.000000 20.102164 -12.763902 1.412581 14.179380 48.287688 -17.516290 -3.643721 19.917124 15.814592 -11.497776 -33.311629 -64.889852 0.000000 0.000000 0.000000 0.000000 0.000000 0.000000 -3.274552 2.445630 34.677109 -1.842586 -2.687708 0.228410 2.757646 6.729216 -2.157174 0.000000 0.000000 0.000000 -3.180417 1.454168 34.689737 -2.758585 -1.332033 0.291403 11.180796 7.124207 -8.998706 0.000000 0.000000 0.000000
10.983800 42.271557 364.339531 2.174226 -3.447490 -34.889684 0.976829 -1.143146 35.042020 0.425988 -0.684466 0.123991 -4.286422 -0.296347 2.188894 0.000000 0.000000 0.000000 -1.295115 8.126066 -1.336874 5.827445 -9.239309 -4.206676 7.410848 -5.606612 -2.076884 -14.730161 26.768147 18.189330 0.000000 0.000000 0.000000 0.000000 0.000000 0.000000 23.269231 -14.640961 1.974890 13.826650 50.028047 -20.977400 -9.249121 15.242091 16.041938 -6.650778 -30.709769 -62.464307 0.000000 0.000000 0.000000 0.000000 0.000000 0.000000 -3.710045 2.851565 36.519905 -1.860007 -2.932067 -1.408614 2.869596 5.857543 -1.546812 0.000000 0.000000 0.000000 -4.293523 0.619155 35.460462 -1.630782 -0.880859 -0.135656 12.357664 7.878662 -10.350452 0.000000 0.000000 0.000000
11.181136 42.263640 364.466761 2.556247 -3.882501 -35.168892 1.283227 -1.187430 35.365399 0.413529 -0.656503 0.151054 -3.226519 0.703176 1.598163 0.000000 0.000000 0.000000 -1.680119 8.260786 -1.291379 5.567658 -7.768860 -4.503732 7.033356 -13.060690 -0.370551 -10.847735 35.967061 16.213486 0.000000 0.000000 0.000000 0.000000 0.000000 0.000000 27.504733 -17.195614 2.969912 12.935617 52.969031 -24.647804 -12.202703 7.761916 13.682619 -2.664994 -21.337577 -56.290692 0.000000 0.000000 0.000000 0.000000 0.000000 0.000000 -4.179732 3.071616 37.893937 -1.811461 -2.947784 -2.542965 2.716325 4.702664 -0.940705 0.000000 0.000000 0.000000 -4.905016 0.715908 35.932949 -1.538795 -0.866244 -0.299333 12.289215 7.066843 -10.243013 0.000000 0.000000 0.000000
11.338960 42.266678 364.614512 3.019251 -4.339981 -35.270223 1.444518 -1.145982 35.515862 0.333011 -0.526809 0.174749 -1.685853 1.059631 0.957196 0.000000 0.000000 0.000000 -2.000749 8.341889 -1.300587 5.210871 -5.947869 -4.722428 8.317765 -23.903510 1.356432 -9.187617 46.036163 14.372546 0.000000 0.000000 0.000000 0.000000 0.000000 0.000000 32.942549 -21.387577 4.817094 11.424680 58.000181 -28.579253 -11.584243 3.265253 11.300427 -3.085978 -15.363961 -52.345785 0.000000 0.000000 0.000000 0.000000 0.000000 0.000000 -4.764357 3.127367 38.553540 -1.871889 -2.955287 -3.068310 3.063131 4.928497 -0.948936 0.000000 0.000000 0.000000 -5.417551 1.212918 36.241889 -1.855788 -1.108180 -0.475638 11.258527 6.246173 -9.188575 0.000000 0.000000 0.000000
11.317621 42.284092 364.663359 3.257266 -4.611490 -35.369620 1.390862 -1.030542 35.636553 0.223003 -0.349247 0.179216 0.711061 0.367815 0.372375 0.000000 0.000000 0.000000 -2.109116 8.268474 -1.307732 4.954664 -3.918640 -4.884890 10.180325 -34.158739 3.406812 -10.714123 50.103550 13.209190 0.000000 0.000000 0.000000 0.000000 0.000000 0.000000 40.610042 -24.803104 7.640178 10.361393 61.794286 -34.143356 -16.475076 -2.234999 10.189073 -0.958124 -14.343084 -50.039288 0.000000 0.000000 0.000000 0.000000 0.000000 0.000000 -5.101683 3.145462 38.787737 -1.646257 -3.085597 -3.247784 -0.252475 0.580064 0.546309 0.000000 0.000000 0.000000 -5.832745 1.142895 36.374603 -1.653598 -1.056167 -0.479506 10.757730 7.390319 -8.883098 0.000000 0.000000 0.000000
11.263132 42.314688 364.740796 3.375357 -4.859665 -35.558641 1.284582 -0.691743 35.827670 0.064543 -0.127333 0.180186 3.549480 -1.336921 -0.002585 0.000000 0.000000 0.000000 -1.827338 7.741044 -1.395257 4.866948 -2.388148 -5.341315 7.660903 -32.761417 4.532755 -9.724680 41.815187 10.590953 0.000000 0.000000 0.000000 0.000000 0.000000 0.000000 49.334847 -27.164910 11.146113 3.607136 63.968352 -34.949021 -11.072507 3.570434 10.878250 -10.306023 -20.223513 -49.241527 0.000000 0.000000 0.000000 0.000000 0.000000 0.000000 -5.283195 2.026727 38.167127 -1.950314 -3.098950 -2.213066 5.368898 12.467576 -3.914461 0.000000 0.000000 0.000000 -6.001189 1.375540 36.482659 -1.820792 -1.078948 -0.380865 10.831590 7.324519 -8.909480 0.000000 0.000000 0.000000
11.265987 42.081685 365.140643 3.687246 -5.667975 -36.396829 1.337382 -0.293101 36.695282 0.163526 -0.091474 0.208137 4.887095 -1.380795 -0.479547 0.000000 0.000000 0.000000 -1.918607 8.153225 -1.630024 3.361419 0.278054 -4.767822 11.621829 -38.046959 4.388290 -16.608172 40.867290 14.839236 0.000000 0.000000 0.000000 0.000000 0.000000 0.000000 56.299843 -27.644129 13.529702 6.052563 65.478324 -43.543398 -12.426945 -2.140607 8.826916 -12.442123 -18.006171 -45.082562 0.000000 0.000000 0.000000 0.000000 0.000000 0.000000 -6.100212 3.387328 39.855871 -2.442492 -3.948202 -3.063567 12.873109 22.018080 -8.866092 0.000000 0.000000 0.000000 -6.631199 2.294264 37.782451 -2.249518 -1.414322 -0.784824 10.567692 7.916308 -8.718486 0.000000 0.000000 0.000000
